<svg width="16" height="11" viewBox="0 0 16 11" fill="none" xmlns="http://www.w3.org/2000/svg">
<g clip-path="url(#clip0)">
<path d="M9.24805 0.333164C9.72462 -0.111055 10.4973 -0.111055 10.9739 0.333164L15.4311 4.48781C15.9077 4.93203 15.9077 5.65225 15.4311 6.09647C14.9546 6.54069 14.1819 6.54069 13.7053 6.09647L9.24805 1.94182C8.77148 1.4976 8.77148 0.777383 9.24805 0.333164Z" fill="black"/>
<path d="M9.26954 10.6667C8.79297 10.2225 8.79297 9.50235 9.26954 9.05813L13.7267 4.90348C14.2033 4.45926 14.976 4.45926 15.4525 4.90348C15.9291 5.3477 15.9291 6.06792 15.4525 6.51214L10.9953 10.6667C10.5187 11.111 9.74611 11.111 9.26954 10.6667Z" fill="black"/>
<path fill-rule="evenodd" clip-rule="evenodd" d="M3 6.62655H14.7797C15.4536 6.62655 16 6.11728 16 5.48906C16 4.86084 15.4536 4.35156 14.7797 4.35156H3V6.62655Z" fill="black"/>
</g>
<defs>
<clipPath id="clip0">
<rect width="16" height="11" fill="white"/>
</clipPath>
</defs>
</svg>
