<svg id="fi_2892956" enable-background="new 0 0 512 512" height="512" viewBox="0 0 512 512" width="512" xmlns="http://www.w3.org/2000/svg"><g><path d="m351.794 407.226h38.359v14.999h-38.359z" transform="matrix(.932 -.363 .363 .932 -125.217 162.905)"></path><path d="m121.89 402.694h15v15h-15z" transform="matrix(.363 -.932 .932 .363 -299.795 381.883)"></path><path d="m324.635 422.351h15v14.999h-15z" transform="matrix(.932 -.363 .363 .932 -133.354 149.841)"></path><path d="m160.728 406.14h14.999v38.359h-14.999z" transform="matrix(.363 -.932 .932 .363 -289.146 427.748)"></path><path d="m375.112 94.306h14.999v15h-14.999z" transform="matrix(.363 -.932 .932 .363 148.88 421.377)"></path><path d="m171.61 74.944h15.001v15h-15.001z" transform="matrix(.932 -.363 .363 .932 -17.71 70.634)"></path><path d="m121.094 90.07h38.359v14.999h-38.359z" transform="matrix(.932 -.363 .363 .932 -25.843 57.549)"></path><path d="m336.273 67.502h14.999v38.359h-14.999z" transform="matrix(.363 -.932 .932 .363 138.257 375.57)"></path><path d="m248.5 335.593h15v15h-15z"></path><path d="m293.277 164.406-5.658 13.891c21.563 8.784 38.644 26.306 46.865 48.074l14.033-5.301c-9.691-25.658-29.826-46.312-55.24-56.664z"></path><path d="m354.866 256c0-6.49-.637-12.991-1.893-19.324l-14.713 2.918c1.065 5.374 1.605 10.894 1.605 16.406z"></path><path d="m459.5 327.75c-14.643 0-27.899 6.033-37.431 15.736l-51.029-29.461c8.837-17.449 13.825-37.165 13.825-58.025 0-20.696-4.912-40.264-13.619-57.611l51.15-29.531c9.506 9.505 22.63 15.392 37.103 15.392 28.948 0 52.5-23.552 52.5-52.5s-23.552-52.5-52.5-52.5-52.5 23.552-52.5 52.5c0 9.049 2.302 17.571 6.35 25.011l-49.602 28.637c-21.763-33.102-58.352-55.623-100.248-58.039v-22.903c25.407-3.652 45-25.554 45-51.956.001-28.948-23.55-52.5-52.499-52.5s-52.5 23.552-52.5 52.5c0 26.402 19.593 48.305 45 51.956v22.901c-17.912 1.049-35.547 5.837-51.417 14.009l6.867 13.336c16.195-8.339 33.707-12.567 52.049-12.567 62.785 0 113.865 51.08 113.865 113.865 0 37.538-18.263 70.886-46.365 91.641v-22.213l-44.137-34.294 19.005-21.191-.001-29.861c0-11.278-4.417-21.908-12.438-29.93s-18.65-12.439-29.929-12.439c-23.361 0-42.368 19.007-42.368 42.369v29.861l19.005 21.191-44.136 34.294v22.213c-28.102-20.755-46.365-54.103-46.365-91.641 0-37.649 18.591-72.825 49.732-94.094l-8.46-12.387c-14.179 9.684-26.053 21.921-35.188 35.859l-49.568-28.618c4.048-7.44 6.349-15.961 6.349-25.01 0-28.948-23.551-52.5-52.5-52.5s-52.5 23.552-52.5 52.5 23.551 52.5 52.5 52.5c14.473 0 27.598-5.887 37.104-15.393l51.142 29.527c-8.82 17.636-13.61 37.305-13.61 57.616 0 20.86 4.988 40.576 13.825 58.025l-51.028 29.462c-9.533-9.704-22.789-15.737-37.433-15.737-28.949 0-52.5 23.552-52.5 52.5s23.551 52.5 52.5 52.5 52.5-23.552 52.5-52.5c0-8.884-2.226-17.256-6.138-24.599l49.645-28.663c21.794 32.891 58.261 55.246 99.993 57.653v22.903c-25.407 3.651-45 25.554-45 51.956 0 28.948 23.551 52.5 52.5 52.5 28.948 0 52.5-23.552 52.5-52.5 0-26.401-19.593-48.304-45-51.956v-22.903c41.733-2.407 78.2-24.762 99.994-57.653l49.645 28.662c-3.912 7.343-6.139 15.715-6.139 24.6 0 28.948 23.552 52.5 52.5 52.5s52.5-23.552 52.5-52.5-23.551-52.5-52.5-52.5zm0-233.5c20.678 0 37.5 16.822 37.5 37.5s-16.822 37.5-37.5 37.5-37.5-16.822-37.5-37.5 16.823-37.5 37.5-37.5zm-241-41.75c0-20.678 16.822-37.5 37.5-37.5s37.5 16.822 37.5 37.5-16.822 37.5-37.5 37.5-37.5-16.822-37.5-37.5zm-166 116.75c-20.678 0-37.5-16.822-37.5-37.5s16.822-37.5 37.5-37.5 37.5 16.823 37.5 37.5-16.822 37.5-37.5 37.5zm0 248.5c-20.678 0-37.5-16.822-37.5-37.5s16.822-37.5 37.5-37.5 37.5 16.823 37.5 37.5-16.822 37.5-37.5 37.5zm176.132-177.669c0-15.092 12.277-27.369 27.368-27.369 7.272 0 14.134 2.857 19.323 8.046s8.045 12.051 8.045 19.323l.001 24.121-18.31 20.415h-18.117l-18.31-20.415zm-25.132 92.687 42.664-33.15h19.671l42.664 33.15v24.249c-15.719 8.203-33.576 12.849-52.5 12.849s-36.781-4.646-52.5-12.849v-24.249zm90 126.732c0 20.678-16.822 37.5-37.5 37.5s-37.5-16.822-37.5-37.5 16.823-37.5 37.5-37.5 37.5 16.823 37.5 37.5zm166-41.75c-20.678 0-37.5-16.822-37.5-37.5s16.822-37.5 37.5-37.5 37.5 16.822 37.5 37.5-16.822 37.5-37.5 37.5z"></path><path d="m45 236.75h15v68.5h-15z"></path><path d="m45 206.75h15v15h-15z"></path><path d="m452 290.25h15v15h-15z"></path><path d="m452 206.75h15v68.5h-15z"></path></g></svg>